<svg xmlns="http://www.w3.org/2000/svg" viewBox="0 0 1440 320"><path fill="#00cba9" fill-opacity="1" d="M0,192L10.4,213.3C20.9,235,42,277,63,288C83.5,299,104,277,125,266.7C146.1,256,167,256,188,229.3C208.7,203,230,149,250,138.7C271.3,128,292,160,313,181.3C333.9,203,355,213,376,218.7C396.5,224,417,224,438,218.7C459.1,213,480,203,501,186.7C521.7,171,543,149,563,138.7C584.3,128,605,128,626,144C647,160,668,192,689,208C709.6,224,730,224,751,213.3C772.2,203,793,181,814,192C834.8,203,856,245,877,240C897.4,235,918,181,939,181.3C960,181,981,235,1002,250.7C1022.6,267,1043,245,1064,202.7C1085.2,160,1106,96,1127,106.7C1147.8,117,1169,203,1190,229.3C1210.4,256,1231,224,1252,213.3C1273,203,1294,213,1315,192C1335.7,171,1357,117,1377,128C1398.3,139,1419,213,1430,250.7L1440,288L1440,320L1429.6,320C1419.1,320,1398,320,1377,320C1356.5,320,1336,320,1315,320C1293.9,320,1273,320,1252,320C1231.3,320,1210,320,1190,320C1168.7,320,1148,320,1127,320C1106.1,320,1085,320,1064,320C1043.5,320,1023,320,1002,320C980.9,320,960,320,939,320C918.3,320,897,320,877,320C855.7,320,835,320,814,320C793,320,772,320,751,320C730.4,320,710,320,689,320C667.8,320,647,320,626,320C605.2,320,584,320,563,320C542.6,320,522,320,501,320C480,320,459,320,438,320C417.4,320,397,320,376,320C354.8,320,334,320,313,320C292.2,320,271,320,250,320C229.6,320,209,320,188,320C167,320,146,320,125,320C104.3,320,83,320,63,320C41.7,320,21,320,10,320L0,320Z"></path></svg>